<svg width="21" height="21" viewBox="0 0 21 21" fill="none" xmlns="http://www.w3.org/2000/svg">
    <circle cx="15.5238" cy="4.965" r="4.80826" fill="#00BEE3"/>
    <path fill-rule="evenodd" clip-rule="evenodd" d="M4.80831 0.156737L-7.43866e-05 0.156737L-7.6068e-05 9.77327L4.84434 9.77327L4.84434 9.77313C7.48329 9.75377 9.61658 7.60851 9.61658 4.965C9.61658 2.32149 7.48329 0.176236 4.84434 0.15687L4.84434 0.156737L4.80831 0.156737Z" fill="#A57FE9"/>
    <path fill-rule="evenodd" clip-rule="evenodd" d="M10.7156 20.4891L10.7156 15.6446L10.7159 15.6446C10.7354 13.0058 12.8806 10.8726 15.524 10.8726C18.1796 10.8726 20.3323 13.0253 20.3323 15.6808C20.3323 15.6958 20.3322 15.7107 20.3321 15.7256L20.3321 20.4891L15.5411 20.4891C15.5354 20.4891 15.5297 20.4891 15.524 20.4891C15.5184 20.4891 15.5127 20.4891 15.507 20.4891L10.7156 20.4891Z" fill="#FFA564"/>
    </svg>
    