<svg width="37" height="37" viewBox="0 0 37 37" fill="none" xmlns="http://www.w3.org/2000/svg">
    <ellipse cx="18.0697" cy="21.5584" rx="12.0155" ry="11.6937" fill="white" />
    <path d="M9.14111 3.21326H26.8888V6.75355C26.8888 6.75355 25.0149 8.63098 18.015 8.63098C11.0151 8.63098 9.14111 6.75355 9.14111 6.75355V3.21326Z" fill="white" />
    <path fill-rule="evenodd" clip-rule="evenodd" d="M19.2778 13.0563C18.8814 13.0032 18.4767 12.9758 18.0653 12.9758C13.1949 12.9758 9.24658 16.8184 9.24658 21.5584C9.24658 26.2984 13.1949 30.1409 18.0653 30.1409C18.4767 30.1409 18.8814 30.1135 19.2778 30.0604V13.0563Z" fill="white" />
    <path d="M15.048 23.982L13.7279 22.6972C13.1546 22.1392 13.1736 21.2125 13.7693 20.6785C14.3233 20.1818 15.1712 20.2132 15.687 20.7494L15.9624 21.0357C16.6419 21.742 17.7627 21.7718 18.4787 21.1026L21.8402 17.9607C22.354 17.4805 23.1527 17.4827 23.6637 17.9659C24.218 18.4899 24.2195 19.3716 23.667 19.8975L19.3502 24.0059C18.1427 25.1552 16.2427 25.1446 15.048 23.982Z" fill="#3F3F3F" />
</svg>
    