<svg width="32" height="32" viewBox="0 0 32 32" fill="none" xmlns="http://www.w3.org/2000/svg">
    <circle opacity="0.1" cx="16" cy="16" r="16" fill="white" />
    <path d="M22.3342 14.36C22.6211 15.452 22.6211 16.544 22.3342 17.636C22.0471 18.7282 21.4958 19.6823 20.6797 20.4989C19.8637 21.3155 18.91 21.8675 17.8188 22.1546C16.7275 22.4418 15.6363 22.4418 14.545 22.1547C13.4536 21.8675 12.4999 21.3156 11.6839 20.4991C10.8679 19.6825 10.3166 18.7282 10.0295 17.6361C9.7426 16.5441 9.7426 15.4522 10.0295 14.36C10.3165 13.268 10.868 12.3137 11.684 11.4971C12.5 10.6805 13.4537 10.1286 14.545 9.84143C15.6362 9.55423 16.7274 9.55439 17.8187 9.84149C18.91 10.1287 19.8636 10.6807 20.6795 11.4972C21.4956 12.3138 22.0472 13.2681 22.3342 14.36ZM20.0237 19.8426C20.9919 18.8737 21.5171 17.7074 21.5991 16.3439L21.4235 16.3147C21.3531 16.3029 21.201 16.2971 20.9667 16.297C20.7325 16.297 20.4933 16.3136 20.2493 16.3468C20.0051 16.3801 19.6968 16.4483 19.3239 16.552C18.951 16.6555 18.579 16.7912 18.2081 16.9593C18.5869 18.2369 18.8525 19.4637 19.0047 20.6397C19.3873 20.4052 19.727 20.1395 20.0237 19.8426ZM15.5554 21.3957C16.4025 21.4934 17.2224 21.3997 18.015 21.1144C17.8549 19.9853 17.5932 18.7702 17.2302 17.4691C15.7309 18.3443 14.3918 19.3718 13.2127 20.5518C13.9272 21.0166 14.7082 21.298 15.5554 21.3957ZM11.2124 18.1986C11.4798 18.8101 11.8557 19.3581 12.3399 19.8427C12.3946 19.8974 12.4376 19.9364 12.4688 19.9599C13.8822 18.5454 15.3776 17.4123 16.955 16.5606C16.8379 16.1934 16.7247 15.873 16.6153 15.5994C16.5917 15.6074 16.5577 15.6239 16.5128 15.6493C16.4678 15.6748 16.4357 15.6934 16.416 15.7052L16.1232 15.8458C15.9201 15.9396 15.6321 16.0402 15.2594 16.1477C14.8864 16.2549 14.4736 16.3517 14.0207 16.4377C13.5677 16.5236 13.0464 16.5587 12.4568 16.543C11.8673 16.5274 11.3012 16.4435 10.7585 16.2911C10.7937 16.9514 10.9451 17.5873 11.2124 18.1986ZM12.3399 12.1534C11.4262 13.0677 10.9031 14.1774 10.7703 15.4823L10.7937 15.3299C11.231 15.4941 11.721 15.582 12.2637 15.5936C12.8064 15.6053 13.2858 15.5732 13.7016 15.497C14.1173 15.4207 14.5448 15.3133 14.9843 15.1747C15.4234 15.0359 15.7162 14.9346 15.8626 14.8699C16.009 14.8054 16.1253 14.7537 16.2112 14.7146L16.2287 14.7089L16.2405 14.6971C15.6196 13.3102 14.9208 12.0636 14.1438 10.958C13.4565 11.2392 12.8554 11.6377 12.3399 12.1534ZM17.3386 10.6852C16.6026 10.527 15.8713 10.5182 15.1454 10.6588C15.8831 11.7177 16.5491 12.884 17.1424 14.1577C18.0405 13.5014 18.7822 12.6457 19.368 11.5909C18.751 11.1455 18.0745 10.8435 17.3386 10.6852ZM20.0178 12.2648C19.9866 12.3116 19.9466 12.3694 19.8977 12.4377C19.8489 12.506 19.7893 12.5891 19.719 12.6868C19.6489 12.7844 19.5677 12.891 19.476 13.0062C19.3842 13.1215 19.2847 13.2425 19.1772 13.3696C19.0699 13.4966 18.9527 13.6294 18.8259 13.7681C18.6988 13.9069 18.5672 14.0446 18.4305 14.1813C18.294 14.318 18.1464 14.4577 17.9884 14.6003C17.8304 14.743 17.6712 14.8746 17.5112 14.9958C17.5189 15.0271 17.5366 15.074 17.5639 15.1365C17.5912 15.199 17.6127 15.246 17.6285 15.277C17.7182 15.5155 17.8178 15.7871 17.9269 16.0919C18.3058 15.9317 18.6884 15.8007 19.0751 15.699C19.4616 15.5976 19.7835 15.5292 20.0413 15.494C20.2991 15.4589 20.5558 15.4384 20.8115 15.4325C21.0672 15.4266 21.2389 15.4286 21.3269 15.4383C21.4149 15.4481 21.4997 15.4588 21.5816 15.4705L21.5934 15.4706C21.4684 14.2047 20.9591 13.1126 20.0648 12.1945L20.0178 12.2648Z" fill="white" />
</svg>
    