<svg width="38" height="39" viewBox="0 0 38 39" fill="none" xmlns="http://www.w3.org/2000/svg">
    <path fill-rule="evenodd" clip-rule="evenodd" d="M3.24071 19.4222C3.24071 10.835 10.21 3.86572 18.7972 3.86572C27.3843 3.86572 34.3536 10.835 34.3536 19.4222C34.3536 28.0093 27.3843 34.9786 18.7972 34.9786C10.21 34.9786 3.24071 28.0093 3.24071 19.4222ZM22.2974 11.2551C22.2974 9.32606 20.7262 7.75486 18.7972 7.75486C16.8682 7.75486 15.297 9.32606 15.297 11.2551C15.297 13.1841 16.8682 14.7553 18.7972 14.7553C20.7262 14.7553 22.2974 13.1841 22.2974 11.2551ZM26.5754 28.0715V24.1824V21.4133C26.5754 18.9554 22.484 17.0886 18.7972 17.0886C15.1103 17.0886 11.0189 18.9554 11.0189 21.4133V28.0715C11.0189 28.1493 11.3923 28.3982 11.4545 28.4293L11.9368 28.8027C12.2634 29.0516 12.6057 29.2694 12.9479 29.4716C13.648 29.8761 14.3947 30.2183 15.157 30.4672C15.8881 30.7161 16.6504 30.8872 17.4282 30.9806C17.9571 31.0428 18.486 31.0583 19.0305 31.0583C19.1361 31.0583 19.2454 31.0628 19.3564 31.0674C19.752 31.0836 20.1682 31.1006 20.5084 30.9183C20.8817 30.7161 21.1306 30.3427 21.1306 29.8916C21.1306 29.2849 20.6795 28.7871 20.1039 28.7249L18.0349 28.4915C16.6193 28.336 15.297 27.9471 14.0836 27.2159L14.4102 26.9514L14.6747 26.7648C15.7481 26.0647 17.3037 25.6291 18.7972 25.6291C20.5862 25.6291 22.5152 26.2514 23.5263 27.2159C23.9775 27.6359 24.2419 28.1182 24.2419 28.6471V29.7049C25.082 29.2694 25.8754 28.7093 26.5754 28.0715ZM18.7972 24.0737C20.0859 24.0737 21.1306 23.0289 21.1306 21.7402C21.1306 20.4515 20.0859 19.4067 18.7972 19.4067C17.5084 19.4067 16.4637 20.4515 16.4637 21.7402C16.4637 23.0289 17.5084 24.0737 18.7972 24.0737Z" fill="#219653" />
</svg>
    