<svg width="750" height="563" viewBox="0 0 750 563" fill="none" xmlns="http://www.w3.org/2000/svg">
    <path d="M1.0004 178.284L1.22448 178.284L1.22448 178.284L1.0004 178.284ZM1.0004 177.498L1.22448 177.499L1.22448 177.498L1.0004 177.498ZM1.00043 0.999445L1.00043 0.775359L0.776341 0.775359L0.776341 0.999445L1.00043 0.999445ZM177.759 0.999476L177.759 1.22356L177.759 1.22356L177.759 0.999476ZM177.892 0.999428L177.892 0.775342L177.892 0.775342L177.892 0.999428ZM178.024 0.999476L178.024 1.22356L178.024 1.22356L178.024 0.999476ZM179.222 0.999476L179.446 0.999477L179.446 0.77539L179.222 0.77539L179.222 0.999476ZM179.222 1.00433L178.998 1.00433L178.998 1.22677L179.22 1.22841L179.222 1.00433ZM179.222 354.778L179.22 354.554L178.998 354.555L178.998 354.778L179.222 354.778ZM179.222 354.783L179.222 355.007L179.446 355.007L179.446 354.783L179.222 354.783ZM1.00037 354.783L0.776279 354.783L0.776279 355.007L1.00037 355.007L1.00037 354.783ZM395.215 572.108L395.439 572.108L395.215 572.108ZM572.106 395.216L572.106 394.992L572.106 395.216ZM572.106 355.007C669.925 355.007 749.222 275.71 749.222 177.891L748.774 177.891C748.774 275.462 669.677 354.559 572.106 354.559L572.106 355.007ZM394.991 177.891C394.991 275.709 474.288 355.007 572.106 355.007L572.106 354.559C474.536 354.559 395.439 275.462 395.439 177.891L394.991 177.891ZM572.107 0.775403C474.288 0.775386 394.991 80.0728 394.991 177.891L395.439 177.891C395.439 80.3203 474.536 1.22356 572.107 1.22358L572.107 0.775403ZM749.222 177.891C749.222 80.0729 669.925 0.775421 572.107 0.775403L572.107 1.22358C669.677 1.22359 748.774 80.3204 748.774 177.891L749.222 177.891ZM0.775883 177.891C0.775883 178.022 0.776036 178.153 0.776311 178.285L1.22448 178.284C1.22421 178.153 1.22406 178.022 1.22406 177.891L0.775883 177.891ZM0.776311 177.498C0.776036 177.629 0.775883 177.76 0.775883 177.891L1.22406 177.891C1.22406 177.76 1.22421 177.629 1.22448 177.499L0.776311 177.498ZM0.776341 0.999445L0.77631 177.498L1.22448 177.498L1.22451 0.999445L0.776341 0.999445ZM177.759 0.77539L1.00043 0.775359L1.00043 1.22353L177.759 1.22356L177.759 0.77539ZM177.892 0.775342L177.759 0.77539L177.759 1.22356L177.892 1.22351L177.892 0.775342ZM178.024 0.77539L177.892 0.775342L177.892 1.22351L178.024 1.22356L178.024 0.77539ZM179.222 0.77539L178.024 0.77539L178.024 1.22356L179.222 1.22356L179.222 0.77539ZM179.446 1.00433L179.446 0.999477L178.998 0.999476L178.998 1.00433L179.446 1.00433ZM355.007 177.891C355.007 80.5172 276.429 1.49629 179.224 0.780247L179.22 1.22841C276.18 1.94264 354.559 80.7636 354.559 177.891L355.007 177.891ZM179.224 355.002C276.429 354.286 355.007 275.265 355.007 177.891L354.559 177.891C354.559 275.019 276.18 353.84 179.22 354.554L179.224 355.002ZM179.446 354.783L179.446 354.778L178.998 354.778L178.998 354.783L179.446 354.783ZM1.00037 355.007L179.222 355.007L179.222 354.559L1.00037 354.559L1.00037 355.007ZM0.77631 178.284L0.776279 354.783L1.22445 354.783L1.22448 178.284L0.77631 178.284ZM572.106 749.223C669.925 749.224 749.222 669.926 749.222 572.108L748.774 572.108C748.774 669.679 669.677 748.775 572.106 748.775L572.106 749.223ZM394.991 572.108C394.991 669.926 474.288 749.223 572.106 749.223L572.106 748.775C474.536 748.775 395.439 669.678 395.439 572.108L394.991 572.108ZM572.106 394.992C474.288 394.992 394.991 474.289 394.991 572.108L395.439 572.108C395.439 474.537 474.536 395.44 572.106 395.44L572.106 394.992ZM749.222 572.108C749.222 474.289 669.925 394.992 572.106 394.992L572.106 395.44C669.677 395.44 748.774 474.537 748.774 572.108L749.222 572.108Z" fill="white" fill-opacity="0.13" />
</svg>
  