<svg width="39" height="39" viewBox="0 0 39 39" fill="none" xmlns="http://www.w3.org/2000/svg">
    <path fill-rule="evenodd" clip-rule="evenodd" d="M19.4152 3.86572C10.828 3.86572 3.87427 10.835 3.87427 19.4222C3.87427 28.0093 10.828 34.9786 19.4152 34.9786C28.0179 34.9786 34.9872 28.0093 34.9872 19.4222C34.9872 10.835 28.0179 3.86572 19.4152 3.86572ZM30.1958 13.1997H25.6066C25.1088 11.2551 24.3932 9.38833 23.4598 7.66156C26.3222 8.64162 28.7024 10.6328 30.1958 13.1997ZM19.4307 7.03916C20.7219 8.90594 21.733 10.9749 22.402 13.1995H16.4594C17.1283 10.9749 18.1395 8.90594 19.4307 7.03916ZM7.39001 22.5334C7.14111 21.5378 6.98555 20.4955 6.98555 19.4221C6.98555 18.3487 7.14111 17.3064 7.39001 16.3108H12.6481C12.5236 17.3376 12.4303 18.3643 12.4303 19.4221C12.4303 20.48 12.5236 21.5067 12.6481 22.5334H7.39001ZM8.66563 25.6451H13.2548C13.7526 27.5897 14.4682 29.4564 15.4016 31.1832C12.5392 30.2031 10.159 28.2275 8.66563 25.6451V25.6451ZM13.2548 13.1997H8.66563C10.159 10.6173 12.5392 8.64162 15.4016 7.66156C14.4682 9.38833 13.7526 11.2551 13.2548 13.1997ZM19.4307 31.8055C18.1395 29.9387 17.1283 27.8697 16.4594 25.6451H22.402C21.733 27.8697 20.7219 29.9387 19.4307 31.8055ZM23.0709 22.5334H15.7905C15.6505 21.5067 15.5416 20.48 15.5416 19.4221C15.5416 18.3643 15.6505 17.322 15.7905 16.3108H23.0709C23.2109 17.322 23.3198 18.3643 23.3198 19.4221C23.3198 20.48 23.2109 21.5067 23.0709 22.5334ZM23.4598 31.1832C24.3932 29.4564 25.1088 27.5897 25.6066 25.6451H30.1958C28.7024 28.2119 26.3222 30.2031 23.4598 31.1832ZM26.2133 22.5334C26.3378 21.5067 26.4311 20.48 26.4311 19.4221C26.4311 18.3643 26.3378 17.3376 26.2133 16.3108H31.4714C31.7203 17.3064 31.8759 18.3487 31.8759 19.4221C31.8759 20.4955 31.7203 21.5378 31.4714 22.5334H26.2133Z" fill="#A57FE9" />
</svg>
    