<svg width="418" height="878" viewBox="0 0 418 878" fill="none" xmlns="http://www.w3.org/2000/svg">
    <path d="M417.659 0.000732422L417.963 0.000732435L417.963 -0.303782L417.659 -0.303782L417.659 0.000732422ZM417.659 208.959L417.659 209.264L417.963 209.264L417.963 208.959L417.659 208.959ZM209.324 0.000723315L209.323 0.305237L209.324 0.305237L209.324 0.000723315ZM209 0.00047916L209 -0.304035L209 -0.304035L209 0.00047916ZM208.676 0.000723287L208.676 0.305237L208.677 0.305237L208.676 0.000723287ZM0.341217 0.00071418L0.341217 -0.3038L0.0367127 -0.3038L0.0367126 0.000714167L0.341217 0.00071418ZM0.341208 207.286L0.645712 207.286L0.645712 207.286L0.341208 207.286ZM0.341177 207.399L0.0366731 207.399L0.0366731 207.399L0.341177 207.399ZM0.341208 207.513L0.645712 207.513L0.645712 207.513L0.341208 207.513ZM0.341208 208.959L0.0367035 208.959L0.0367035 209.264L0.341208 209.264L0.341208 208.959ZM0.346945 208.959L0.65145 208.957L0.649222 208.654L0.346945 208.654L0.346945 208.959ZM417.653 208.959L417.653 208.655L417.351 208.655L417.349 208.957L417.653 208.959ZM209 876.696C93.9274 876.696 0.645687 783.974 0.645692 669.601L0.0366834 669.601C0.0366784 784.314 93.5945 877.305 209 877.305L209 876.696ZM417.354 669.601C417.354 783.974 324.073 876.696 209 876.696L209 877.305C324.406 877.305 417.963 784.314 417.963 669.601L417.354 669.601ZM209 462.507C324.073 462.507 417.354 555.228 417.354 669.601L417.963 669.601C417.963 554.888 324.406 461.898 209 461.898L209 462.507ZM0.645692 669.601C0.645697 555.228 93.9274 462.507 209 462.507L209 461.898C93.5945 461.898 0.0366884 554.888 0.0366834 669.601L0.645692 669.601ZM417.354 0.000732409L417.354 208.959L417.963 208.959L417.963 0.000732435L417.354 0.000732409ZM209.324 0.305237L417.659 0.305246L417.659 -0.303782L209.324 -0.303791L209.324 0.305237ZM209 0.304993L209.323 0.305237L209.324 -0.303791L209 -0.304035L209 0.304993ZM208.677 0.305237L209 0.304993L209 -0.304035L208.676 -0.303791L208.677 0.305237ZM0.341217 0.305228L208.676 0.305237L208.676 -0.303791L0.341217 -0.3038L0.341217 0.305228ZM0.645712 207.286L0.645721 0.000714194L0.0367126 0.000714167L0.0367036 207.286L0.645712 207.286ZM0.645682 207.399L0.645712 207.286L0.0367036 207.286L0.0366731 207.399L0.645682 207.399ZM0.645712 207.513L0.645682 207.399L0.0366731 207.399L0.0367036 207.513L0.645712 207.513ZM0.645712 208.959L0.645712 207.513L0.0367036 207.513L0.0367035 208.959L0.645712 208.959ZM0.346945 208.654L0.341208 208.654L0.341208 209.264L0.346945 209.264L0.346945 208.654ZM209 414.494C94.4501 414.494 1.49361 322.613 0.65145 208.957L0.0424408 208.961C0.887101 322.955 94.1187 415.103 209 415.103L209 414.494ZM417.349 208.957C416.506 322.613 323.55 414.494 209 414.494L209 415.103C323.881 415.103 417.113 322.956 417.958 208.961L417.349 208.957ZM417.659 208.655L417.653 208.655L417.653 209.264L417.659 209.264L417.659 208.655Z" fill="url(#paint0_linear_109_83880)" fill-opacity="0.5" />
    <defs>
        <linearGradient id="paint0_linear_109_83880" x1="417.659" y1="438.5" x2="0.341167" y2="438.5" gradientUnits="userSpaceOnUse">
            <stop stop-color="#00BEE3" />
            <stop offset="1" stop-color="#FFA564" />
        </linearGradient>
    </defs>
</svg>