<svg width="195" height="32" viewBox="0 0 195 32" fill="none" xmlns="http://www.w3.org/2000/svg">
    <circle cx="15.5238" cy="9.965" r="4.80826" fill="#00BEE3" />
    <path fill-rule="evenodd" clip-rule="evenodd" d="M4.80831 5.15674L-7.43866e-05 5.15674L-7.6068e-05 14.7733L4.84434 14.7733L4.84434 14.7731C7.48329 14.7538 9.61658 12.6085 9.61658 9.965C9.61658 7.32149 7.48329 5.17624 4.84434 5.15687L4.84434 5.15674L4.80831 5.15674Z" fill="#A57FE9" />
    <path fill-rule="evenodd" clip-rule="evenodd" d="M10.7156 25.4891L10.7156 20.6446L10.7159 20.6446C10.7354 18.0058 12.8806 15.8726 15.524 15.8726C18.1796 15.8726 20.3323 18.0253 20.3323 20.6808C20.3323 20.6958 20.3322 20.7107 20.3321 20.7256L20.3321 25.4891L15.5411 25.4891C15.5354 25.4891 15.5297 25.4891 15.524 25.4891C15.5184 25.4891 15.5127 25.4891 15.507 25.4891L10.7156 25.4891Z" fill="#FFA564" />
    <path d="M36.2859 24.7353V6.29607C36.2859 6.11958 36.3741 6.02692 36.5506 6.0181H42.7852C45.6003 6.0181 47.8638 6.86527 49.5758 8.55961C51.2878 10.2451 52.1438 12.5616 52.1438 15.509C52.1438 18.4565 51.2878 20.7774 49.5758 22.4717C47.8727 24.1572 45.6091 25 42.7852 25H36.5506C36.3741 25 36.2859 24.9118 36.2859 24.7353ZM38.7215 23.1071H42.7852C44.8414 23.1071 46.5093 22.4629 47.7888 21.1745C49.0684 19.8773 49.7082 17.9932 49.7082 15.5223C49.7082 13.0425 49.0684 11.1585 47.7888 9.87007C46.5181 8.57284 44.8502 7.92423 42.7852 7.92423H38.7215V23.1071ZM60.4747 25.4368C58.5068 25.4368 56.8742 24.7706 55.577 23.438C54.2886 22.0967 53.6444 20.195 53.6444 17.7329C53.6444 15.262 54.2886 13.3735 55.577 12.0674C56.8742 10.7525 58.5641 10.0951 60.6468 10.0951C62.7382 10.0951 64.4414 10.7658 65.7563 12.1071C67.08 13.4397 67.7418 15.209 67.7418 17.4152V18.0903C67.7418 18.4521 67.5609 18.633 67.1991 18.633H56.1065C56.2565 20.2744 56.7418 21.501 57.5625 22.3129C58.3832 23.1248 59.4245 23.5307 60.6865 23.5307C62.6809 23.5307 64.1281 22.7188 65.0282 21.0951C65.1341 20.9186 65.2444 20.8303 65.3591 20.8303H67.0667C67.2962 20.8303 67.3844 20.9362 67.3315 21.148C66.9697 22.4541 66.2284 23.4954 65.1076 24.272C63.9869 25.0485 62.4426 25.4368 60.4747 25.4368ZM56.1065 16.7269H65.3062C65.2268 15.3061 64.7414 14.1633 63.8501 13.2985C62.9588 12.4248 61.8955 11.988 60.66 11.988C59.4334 11.988 58.4053 12.3895 57.5758 13.1926C56.7462 13.9956 56.2565 15.1737 56.1065 16.7269Z" fill="#00BEE3" />
    <path d="M69.2688 21.1215C69.26 21.0774 69.2556 21.0421 69.2556 21.0157C69.2556 20.8745 69.3527 20.8039 69.5468 20.8039H71.2544C71.3603 20.8039 71.4706 20.8921 71.5853 21.0686C72.4854 22.6923 74.0651 23.5042 76.3242 23.5042C77.6038 23.5042 78.5568 23.3145 79.1834 22.935C79.8099 22.5556 80.1232 22.079 80.1232 21.5054C80.1232 20.9318 79.907 20.4641 79.4746 20.1023C79.051 19.7317 78.3186 19.4228 77.2772 19.1757L73.8886 18.355C70.9941 17.649 69.5468 16.2503 69.5468 14.1589C69.5468 12.9675 70.0851 11.9924 71.1617 11.2335C72.2383 10.4746 73.7165 10.0951 75.5961 10.0951C77.4758 10.0951 78.9936 10.4834 80.1497 11.26C81.3057 12.0365 82.0646 13.0734 82.4264 14.3707C82.4794 14.5913 82.3867 14.7016 82.1485 14.7016H80.4409C80.335 14.7016 80.2291 14.6089 80.1232 14.4236C79.2231 12.7999 77.7317 11.988 75.6491 11.988C74.4401 11.988 73.5267 12.1821 72.909 12.5704C72.2913 12.9587 71.9824 13.4397 71.9824 14.0133C71.9824 14.578 72.1942 15.0413 72.6178 15.4032C73.0502 15.765 73.7871 16.0738 74.8284 16.3297L78.2171 17.1372C81.1116 17.8255 82.5588 19.2287 82.5588 21.3466C82.5588 22.5379 82.0117 23.513 80.9174 24.272C79.8232 25.0309 78.2921 25.4103 76.3242 25.4103C74.3563 25.4103 72.7766 25.0265 71.5853 24.2587C70.4028 23.491 69.6306 22.4453 69.2688 21.1215ZM84.8536 6.56081C84.8536 6.199 85.0345 6.0181 85.3963 6.0181H87.1568C87.3598 6.0181 87.501 6.06222 87.5804 6.15047C87.6598 6.22989 87.6995 6.36667 87.6995 6.56081V8.32134C87.6995 8.52431 87.6598 8.6655 87.5804 8.74492C87.501 8.82435 87.3598 8.86406 87.1568 8.86406H85.3963C85.2022 8.86406 85.061 8.82435 84.9727 8.74492C84.8933 8.6655 84.8536 8.52431 84.8536 8.32134V6.56081ZM85.0521 24.7353V10.7702C85.0521 10.5849 85.1404 10.4922 85.3169 10.4922H87.2098C87.3951 10.4922 87.4878 10.5849 87.4878 10.7702V24.7353C87.4878 24.9118 87.3951 25 87.2098 25H85.3169C85.1404 25 85.0521 24.9118 85.0521 24.7353Z" fill="#A57FE9" />
    <path d="M97.1953 24.0469C95.1921 24.0469 93.5374 23.4248 92.2314 22.1805C90.9341 20.9362 90.2855 19.2375 90.2855 17.0843C90.2855 14.931 90.9386 13.2279 92.2446 11.9748C93.5595 10.7217 95.2538 10.0951 97.3276 10.0951C98.4837 10.0951 99.5956 10.2319 100.663 10.5054C101.731 10.7702 102.499 11.0393 102.967 11.3129L103.708 11.71V23.3718C103.708 27.7136 101.449 29.8845 96.9305 29.8845C95.1921 29.8845 93.7978 29.5182 92.7476 28.7858C91.6975 28.0533 91.1018 27.0606 90.9606 25.8075C90.943 25.631 91.0356 25.5427 91.2386 25.5427H92.9462C93.105 25.5427 93.2109 25.631 93.2639 25.8075C93.4845 26.4605 93.9037 26.9856 94.5214 27.3827C95.1479 27.7798 95.951 27.9783 96.9305 27.9783C98.4307 27.9783 99.525 27.6121 100.213 26.8797C100.91 26.1472 101.259 24.9779 101.259 23.3718V23.2395C100.085 23.7778 98.7308 24.0469 97.1953 24.0469ZM97.6056 11.988C96.1407 11.988 94.9582 12.4381 94.0581 13.3382C93.1668 14.2295 92.7211 15.4826 92.7211 17.0975C92.7211 18.7124 93.1624 19.9611 94.0449 20.8436C94.9361 21.7172 96.0657 22.154 97.4335 22.154C98.8102 22.154 100.085 21.8849 101.259 21.3466V12.7955C101.259 12.7778 101.105 12.7072 100.796 12.5837C100.496 12.4601 100.037 12.3322 99.4191 12.1998C98.8014 12.0586 98.1969 11.988 97.6056 11.988ZM107.379 24.7353V10.7702C107.379 10.5849 107.468 10.4922 107.644 10.4922H109.14C109.316 10.4922 109.413 10.5849 109.431 10.7702L109.683 12.2527C109.788 12.1027 110.018 11.8777 110.371 11.5776C110.724 11.2688 111.068 11.0217 111.403 10.8364C112.268 10.3422 113.274 10.0951 114.421 10.0951C116.248 10.0951 117.744 10.6599 118.909 11.7894C120.074 12.919 120.656 14.4766 120.656 16.4621V24.7353C120.656 24.9118 120.568 25 120.391 25H118.485C118.309 25 118.22 24.9118 118.22 24.7353V16.4621C118.22 15.0325 117.85 13.9294 117.109 13.1529C116.367 12.3763 115.427 11.988 114.289 11.988C113.768 11.988 113.252 12.0895 112.74 12.2924C112.237 12.4866 111.818 12.7204 111.483 12.994C111.147 13.2588 110.852 13.5323 110.596 13.8147C110.075 14.3707 109.815 14.7104 109.815 14.834V24.7353C109.815 24.9118 109.727 25 109.55 25H107.644C107.468 25 107.379 24.9118 107.379 24.7353Z" fill="#FFA564" />
    <path d="M122.17 7.64625V6.29607C122.17 6.11958 122.258 6.02692 122.435 6.0181H137.895C138.072 6.0181 138.16 6.11076 138.16 6.29607V7.64625C138.16 7.82274 138.072 7.9154 137.895 7.92423H131.25V24.7353C131.25 24.9118 131.162 25 130.986 25H129.08C128.903 25 128.815 24.9118 128.815 24.7353V7.92423H122.435C122.258 7.9154 122.17 7.82274 122.17 7.64625ZM139.925 24.7353V6.29607C139.925 6.11076 140.014 6.0181 140.19 6.0181H142.096C142.273 6.0181 142.361 6.11076 142.361 6.29607V12.1204C142.432 12.0145 142.648 11.8115 143.01 11.5115C143.372 11.2114 143.72 10.9687 144.055 10.7834C144.911 10.3245 145.882 10.0951 146.968 10.0951C148.794 10.0951 150.29 10.6599 151.455 11.7894C152.62 12.919 153.202 14.4766 153.202 16.4621V24.7353C153.202 24.9118 153.114 25 152.937 25H151.031C150.855 25 150.767 24.9118 150.767 24.7353V16.4621C150.767 15.0325 150.396 13.9294 149.655 13.1529C148.913 12.3763 147.974 11.988 146.835 11.988C146.041 11.988 145.269 12.2086 144.519 12.6498C143.769 13.0911 143.221 13.5058 142.877 13.8941C142.533 14.2824 142.361 14.5074 142.361 14.5692V24.7353C142.361 24.9118 142.273 25 142.096 25H140.19C140.014 25 139.925 24.9118 139.925 24.7353ZM156.609 6.56081C156.609 6.199 156.79 6.0181 157.152 6.0181H158.912C159.115 6.0181 159.256 6.06222 159.336 6.15047C159.415 6.22989 159.455 6.36667 159.455 6.56081V8.32134C159.455 8.52431 159.415 8.6655 159.336 8.74492C159.256 8.82435 159.115 8.86406 158.912 8.86406H157.152C156.957 8.86406 156.816 8.82435 156.728 8.74492C156.649 8.6655 156.609 8.52431 156.609 8.32134V6.56081ZM156.807 24.7353V10.7702C156.807 10.5849 156.896 10.4922 157.072 10.4922H158.965C159.15 10.4922 159.243 10.5849 159.243 10.7702V24.7353C159.243 24.9118 159.15 25 158.965 25H157.072C156.896 25 156.807 24.9118 156.807 24.7353ZM163.126 24.7353V10.7702C163.126 10.5849 163.215 10.4922 163.391 10.4922H164.887C165.063 10.4922 165.16 10.5849 165.178 10.7702L165.43 12.2527C165.535 12.1027 165.765 11.8777 166.118 11.5776C166.471 11.2688 166.815 11.0217 167.15 10.8364C168.015 10.3422 169.021 10.0951 170.168 10.0951C171.995 10.0951 173.491 10.6599 174.656 11.7894C175.821 12.919 176.403 14.4766 176.403 16.4621V24.7353C176.403 24.9118 176.315 25 176.138 25H174.232C174.056 25 173.967 24.9118 173.967 24.7353V16.4621C173.967 15.0325 173.597 13.9294 172.855 13.1529C172.114 12.3763 171.174 11.988 170.036 11.988C169.515 11.988 168.999 12.0895 168.487 12.2924C167.984 12.4866 167.565 12.7204 167.23 12.994C166.894 13.2588 166.599 13.5323 166.343 13.8147C165.822 14.3707 165.562 14.7104 165.562 14.834V24.7353C165.562 24.9118 165.474 25 165.297 25H163.391C163.215 25 163.126 24.9118 163.126 24.7353ZM180.088 24.7353V6.29607C180.088 6.11958 180.176 6.02692 180.352 6.0181H182.259C182.435 6.0181 182.523 6.11076 182.523 6.29607V16.7269H183.887C185.369 16.7269 186.543 16.0518 187.408 14.7016L189.87 10.7702C189.993 10.5937 190.13 10.501 190.28 10.4922H192.372C192.645 10.4922 192.707 10.6025 192.557 10.8231L189.976 14.9663C189.04 16.4665 187.911 17.3269 186.587 17.5476C187.964 17.7505 189.186 18.6992 190.254 20.3935L192.941 24.6691C192.994 24.7485 193.016 24.8235 193.007 24.8941C193.007 24.9647 192.919 25 192.742 25H190.664C190.523 25 190.386 24.9118 190.254 24.7353L187.672 20.6583C186.808 19.2993 185.634 18.6242 184.151 18.633H182.523V24.7353C182.523 24.9118 182.435 25 182.259 25H180.352C180.176 25 180.088 24.9118 180.088 24.7353Z" fill="black" />
</svg>
    