<svg width="37" height="37" viewBox="0 0 37 37" fill="none" xmlns="http://www.w3.org/2000/svg">
    <path fill-rule="evenodd" clip-rule="evenodd" d="M19.641 34.5676C27.936 34.5676 34.6604 27.8431 34.6604 19.5481C34.6604 16.4268 33.7083 13.5278 32.0786 11.1258L20.0073 24.5384C18.9669 25.6943 17.2163 25.8651 15.9722 24.932L10.3956 20.7496C9.73201 20.2519 9.59753 19.3104 10.0952 18.6468C10.5929 17.9832 11.5343 17.8488 12.1979 18.3465L17.7745 22.5289L30.1312 8.79918C27.4241 6.15687 23.7227 4.52869 19.641 4.52869C11.346 4.52869 4.62158 11.2531 4.62158 19.5481C4.62158 27.8431 11.346 34.5676 19.641 34.5676Z" fill="white" />
</svg>
    