<svg
  width="37"
  height="37"
  viewBox="0 0 37 37"
  fill="none"
  xmlns="http://www.w3.org/2000/svg"
>
    <path fill-rule="evenodd" clip-rule="evenodd" d="M21.5115 5.0715L21.5115 5.07154C21.6348 6.30443 21.6964 6.92088 21.9544 7.2591C22.2817 7.68813 22.814 7.90862 23.3488 7.83667C23.7704 7.77996 24.2499 7.38766 25.2089 6.60306L25.2089 6.60304C25.7155 6.18854 25.9688 5.98129 26.2414 5.89422C26.5876 5.78362 26.9621 5.8023 27.2956 5.9468C27.5581 6.06056 27.7896 6.29199 28.2524 6.75486L29.5944 8.09679C30.0572 8.55967 30.2887 8.79111 30.4024 9.05366C30.5469 9.38713 30.5656 9.76167 30.455 10.1079C30.3679 10.3804 30.1607 10.6337 29.7462 11.1404L29.7462 11.1404C28.9615 12.0994 28.5692 12.5789 28.5125 13.0005C28.4406 13.5353 28.6611 14.0675 29.0901 14.3948C29.4283 14.6529 30.0448 14.7145 31.2777 14.8378C31.9291 14.9029 32.2548 14.9355 32.5091 15.0667C32.8321 15.2333 33.0837 15.5113 33.2173 15.8493C33.3226 16.1154 33.3226 16.4427 33.3226 17.0973V18.9952C33.3226 19.6497 33.3226 19.9769 33.2174 20.2429C33.0838 20.581 32.8321 20.8591 32.509 21.0257C32.2547 21.1568 31.9291 21.1894 31.2779 21.2545H31.2778C30.0453 21.3778 29.429 21.4394 29.0909 21.6973C28.6616 22.0246 28.4411 22.5571 28.5131 23.0921C28.5699 23.5135 28.9621 23.9929 29.7464 24.9515C30.1608 25.4579 30.3679 25.7112 30.455 25.9836C30.5657 26.3299 30.547 26.7046 30.4024 27.0382C30.2887 27.3006 30.0573 27.532 29.5946 27.9947L28.2525 29.3368C27.7896 29.7997 27.5582 30.0311 27.2957 30.1449C26.9622 30.2894 26.5876 30.308 26.2414 30.1974C25.9689 30.1104 25.7156 29.9031 25.2089 29.4886C24.25 28.704 23.7705 28.3117 23.3489 28.255C22.8141 28.183 22.2818 28.4035 21.9545 28.8326C21.6965 29.1708 21.6348 29.7873 21.5115 31.0204C21.4464 31.6721 21.4138 31.9979 21.2825 32.2523C21.116 32.5752 20.838 32.8267 20.5002 32.9603C20.234 33.0656 19.9066 33.0656 19.2518 33.0656H17.3543C16.6996 33.0656 16.3723 33.0656 16.1062 32.9604C15.7683 32.8268 15.4902 32.5751 15.3236 32.2521C15.1925 31.9978 15.1599 31.6722 15.0948 31.0208L15.0948 31.0208C14.9715 29.7878 14.9098 29.1714 14.6518 28.8331C14.3245 28.4041 13.7922 28.1836 13.2575 28.2556C12.8358 28.3123 12.3563 28.7046 11.3973 29.4893L11.3973 29.4893C10.8906 29.9038 10.6373 30.1111 10.3647 30.1981C10.0186 30.3087 9.64403 30.29 9.31057 30.1456C9.048 30.0318 8.81656 29.8004 8.35366 29.3375L7.01177 27.9956C6.54889 27.5327 6.31744 27.3012 6.20368 27.0387C6.05919 26.7052 6.04051 26.3307 6.1511 25.9845C6.23818 25.7119 6.44544 25.4586 6.85997 24.9519C7.6446 23.993 8.03691 23.5135 8.09362 23.0919C8.16556 22.5571 7.94508 22.0248 7.51605 21.6975C7.17783 21.4395 6.56138 21.3778 5.32849 21.2545C4.67714 21.1894 4.35147 21.1568 4.09716 21.0257C3.77416 20.8591 3.52252 20.581 3.3889 20.243C3.28369 19.9769 3.28369 19.6497 3.28369 18.9951V17.0975C3.28369 16.4427 3.28369 16.1153 3.38895 15.8491C3.52257 15.5113 3.77414 15.2333 4.09703 15.0667C4.35139 14.9355 4.67715 14.9029 5.32866 14.8378H5.32867C6.5619 14.7145 7.17851 14.6528 7.51679 14.3947C7.94565 14.0674 8.16606 13.5353 8.09422 13.0006C8.03755 12.5789 7.64511 12.0993 6.86024 11.14C6.44553 10.6331 6.23818 10.3797 6.15111 10.107C6.04061 9.76091 6.05928 9.38653 6.20366 9.05318C6.31744 8.7905 6.54896 8.55898 7.01202 8.09592L8.35373 6.75421C8.81663 6.29132 9.04807 6.05987 9.31064 5.9461C9.64409 5.80162 10.0186 5.78294 10.3648 5.89353C10.6374 5.9806 10.8907 6.1879 11.3975 6.6025C12.3564 7.38703 12.8358 7.7793 13.2573 7.83606C13.7922 7.9081 14.3247 7.68754 14.652 7.25834C14.9099 6.92017 14.9715 6.30389 15.0948 5.07134C15.1599 4.42017 15.1925 4.09459 15.3236 3.84034C15.4902 3.51723 15.7683 3.26551 16.1064 3.13188C16.3724 3.02673 16.6996 3.02673 17.354 3.02673H19.252C19.9066 3.02673 20.2339 3.02673 20.5 3.13194C20.838 3.26557 21.116 3.5172 21.2826 3.8402C21.4138 4.0945 21.4464 4.42017 21.5115 5.0715ZM18.3034 24.0539C21.6214 24.0539 24.3111 21.3642 24.3111 18.0461C24.3111 14.7281 21.6214 12.0384 18.3034 12.0384C14.9854 12.0384 12.2956 14.7281 12.2956 18.0461C12.2956 21.3642 14.9854 24.0539 18.3034 24.0539Z" fill="white"/>
    </svg>
