<svg width="34" height="21" viewBox="0 0 34 21" fill="none" xmlns="http://www.w3.org/2000/svg">
    <path d="M16.9098 11.5255C12.3349 11.5255 8.57188 15.0755 8.11983 19.6238C8.0696 20.1298 8.48709 20.5437 8.99629 20.5437H24.8242C25.3329 20.5437 25.7504 20.1298 25.7002 19.6233C25.2486 15.0755 21.4856 11.526 16.9098 11.526V11.5255Z" fill="white" />
    <path d="M21.5216 5.33839C21.5216 7.88954 19.454 9.95812 16.9034 9.95812C14.3528 9.95812 12.2852 7.88954 12.2852 5.33839C12.2852 2.78723 14.3528 0.719116 16.9034 0.719116C19.454 0.719116 21.5216 2.78723 21.5216 5.33839Z" fill="white" />
    <path d="M24.5212 15.9782C23.7815 14.6959 22.7362 13.6165 21.4785 12.8361C22.566 10.8182 24.6692 9.45117 27.0852 9.45117C30.3113 9.45117 32.9794 11.8894 33.4172 15.0586C33.4868 15.5629 33.0679 15.9782 32.5587 15.9782H24.5212Z" fill="white" />
    <path d="M27.08 8.31644C27.9666 8.31644 28.8168 7.96419 29.4437 7.33717C30.0706 6.71014 30.4227 5.85972 30.4227 4.97298C30.4227 4.08624 30.0706 3.23582 29.4437 2.6088C28.8168 1.98177 27.9666 1.62952 27.08 1.62952C26.1935 1.62952 25.3432 1.98177 24.7164 2.6088C24.0895 3.23582 23.7373 4.08624 23.7373 4.97298C23.7373 5.85972 24.0895 6.71014 24.7164 7.33717C25.3432 7.96419 26.1935 8.31644 27.08 8.31644Z" fill="white" />
    <path d="M9.28815 15.9782C10.0278 14.696 11.0729 13.6166 12.3304 12.8361C11.2429 10.8182 9.13977 9.45117 6.72421 9.45117C3.49808 9.45117 0.82953 11.8894 0.391761 15.0586C0.32264 15.5629 0.741977 15.9782 1.25071 15.9782H9.28815Z" fill="white" />
    <path d="M6.72162 8.31644C5.83508 8.31644 4.98484 7.96419 4.35796 7.33717C3.73108 6.71014 3.37891 5.85972 3.37891 4.97298C3.37891 4.08624 3.73108 3.23582 4.35796 2.6088C4.98484 1.98177 5.83508 1.62952 6.72162 1.62952C7.60816 1.62952 8.4584 1.98177 9.08528 2.6088C9.71216 3.23582 10.0643 4.08624 10.0643 4.97298C10.0643 5.85972 9.71216 6.71014 9.08528 7.33717C8.4584 7.96419 7.60816 8.31644 6.72162 8.31644Z" fill="white" />
</svg>
    