<svg width="1440" height="687" viewBox="0 0 1440 687" fill="none" xmlns="http://www.w3.org/2000/svg">
    <path d="M0.00109961 344.486L0.501101 344.486L0.501098 344.484L0.00109961 344.486ZM0.00103986 686.24L-0.49896 686.24L-0.49896 686.74L0.00103986 686.74L0.00103986 686.24ZM340.541 686.24L340.541 685.74L340.541 686.24ZM343.102 686.24L343.102 686.74L343.602 686.74L343.602 686.24L343.102 686.24ZM343.102 686.231L343.099 685.731L342.602 685.735L342.602 686.231L343.102 686.231ZM343.103 1.03056L342.603 1.03056L342.603 1.52687L343.099 1.53055L343.103 1.03056ZM343.103 1.02113L343.603 1.02113L343.603 0.521129L343.103 0.521129L343.103 1.02113ZM340.743 1.02113L340.742 1.52113L340.743 1.52113L340.743 1.02113ZM340.541 1.02107L340.541 0.521069L340.541 0.521069L340.541 1.02107ZM340.339 1.02113L340.339 1.52113L340.34 1.52113L340.339 1.02113ZM0.00115967 1.02107L0.00115976 0.521069L-0.49884 0.521068L-0.49884 1.02107L0.00115967 1.02107ZM0.00109991 342.776L0.5011 342.777L0.5011 342.776L0.00109991 342.776ZM1439.5 343.631C1439.5 532.576 1287.26 685.741 1099.46 685.741L1099.46 686.741C1287.81 686.741 1440.5 533.122 1440.5 343.631L1439.5 343.631ZM1099.46 1.52119C1287.26 1.52122 1439.5 154.686 1439.5 343.631L1440.5 343.631C1440.5 154.14 1287.81 0.521221 1099.46 0.521188L1099.46 1.52119ZM759.418 343.631C759.418 154.686 911.663 1.52116 1099.46 1.52119L1099.46 0.521188C911.105 0.521155 758.418 154.139 758.418 343.631L759.418 343.631ZM1099.46 685.741C911.663 685.741 759.418 532.576 759.418 343.631L758.418 343.631C758.418 533.122 911.105 686.741 1099.46 686.741L1099.46 685.741ZM0.501098 344.484C0.500428 344.2 0.500062 343.915 0.500062 343.631L-0.499938 343.631C-0.499938 343.916 -0.499571 344.202 -0.498899 344.487L0.501098 344.484ZM0.50104 686.24L0.5011 344.486L-0.4989 344.486L-0.49896 686.24L0.50104 686.24ZM340.541 685.74L0.00103986 685.74L0.00103986 686.74L340.541 686.74L340.541 685.74ZM343.102 685.74L340.541 685.74L340.541 686.74L343.102 686.74L343.102 685.74ZM342.602 686.231L342.602 686.24L343.602 686.24L343.602 686.231L342.602 686.231ZM680.582 343.631C680.582 531.717 529.718 684.348 343.099 685.731L343.106 686.731C530.28 685.344 681.582 532.261 681.582 343.631L680.582 343.631ZM343.099 1.53055C529.718 2.9137 680.582 155.545 680.582 343.631L681.582 343.631C681.582 155 530.28 1.91784 343.106 0.530573L343.099 1.53055ZM342.603 1.02113L342.603 1.03056L343.603 1.03056L343.603 1.02113L342.603 1.02113ZM340.743 1.52113L343.103 1.52113L343.103 0.521129L340.743 0.521128L340.743 1.52113ZM340.541 1.52107L340.742 1.52113L340.743 0.521128L340.541 0.521069L340.541 1.52107ZM340.34 1.52113L340.541 1.52107L340.541 0.521069L340.339 0.521128L340.34 1.52113ZM0.00115958 1.52107L340.339 1.52113L340.339 0.521128L0.00115976 0.521069L0.00115958 1.52107ZM0.5011 342.776L0.50116 1.02107L-0.49884 1.02107L-0.4989 342.776L0.5011 342.776ZM0.500062 343.631C0.500062 343.346 0.500428 343.061 0.501099 342.777L-0.498899 342.775C-0.499571 343.06 -0.499938 343.345 -0.499938 343.631L0.500062 343.631Z" fill="url(#paint0_linear_100_84546)" fill-opacity="0.5" />
    <defs>
        <linearGradient id="paint0_linear_100_84546" x1="720" y1="1.02112" x2="720" y2="686.24" gradientUnits="userSpaceOnUse">
            <stop stop-color="#00BEE3" />
            <stop offset="1" stop-color="#FFA564" />
        </linearGradient>
    </defs>
</svg>
    